<svg width="274" height="86" viewBox="0 0 274 86" fill="none" xmlns="http://www.w3.org/2000/svg">
<path d="M79 58.2129H274" stroke="#FD6B1F" stroke-width="0.8"/>
<path fill-rule="evenodd" clip-rule="evenodd" d="M67.6228 44.7999L63.0985 50.8295L63.0783 51.2134L62.8497 51.2104L62.8037 51.2669L62.7163 51.2079L49.3882 50.5656L47.2977 48.1233L61.6769 48.7983L65.6695 43.4517L67.6228 44.7999ZM43.1827 45.3821L52.091 55.2727L56.0278 55.978L62.5459 67.0561L61.0351 67.8824L54.9058 57.6783L53.7436 57.9047L45.8094 65.3491L28.1644 45.6199L36.7766 38.243L40.9571 42.8806L59.965 43.7652L59.8674 46.0924L43.1827 45.3821ZM34.822 62.8259C33.3256 64.0673 31.7235 65.2533 30.7529 65.9268L27.3056 62.0297L29.824 61.1591L32.0711 58.6031L31.5727 58.0923L29.3515 60.5863L26.6454 61.3224L21.0561 55.012L26.9507 46.2648L38.5806 59.3011C37.8381 60.0727 36.3974 61.5027 34.822 62.8259ZM20.2696 59.848L17.907 67.2232L12.5724 66.7048L11.6327 58.9566L17.3241 43.657L25.3897 46.5405L20.0042 54.3906L20.2696 59.848ZM1.1794 61.1736L0.225031 59.6878L9.70257 53.681L12.9613 47.3471L14.4194 48.2978L11.0949 54.977L1.1794 61.1736ZM10.7366 60.8409L10.7977 63.2511L7.58946 65.3104L3.79426 74.3515L2.39032 73.9222L6.40513 64.1069L10.7366 60.8409ZM15.1252 68.1071L16.6827 68.5446L16.0693 70.5638L16.7885 81.081L15.4607 81.1402L14.5477 70.2618L15.1252 68.1071ZM21.7329 57.1693L33.4523 70.5681L37.1819 66.9919L37.6364 68.9836L36.6472 72.2918L39.8406 73.5693L38.2933 78.791L34.6329 79.5041L33.9838 75.8312L26.7138 78.055L19.6191 67.0891L21.5018 59.8834L21.7329 57.1693ZM31.1291 66.395C32.1144 65.6996 33.7623 64.5047 35.2607 63.2249C36.7591 61.9451 38.2106 60.5225 38.988 59.7347L41.2118 62.227L33.5565 69.104L31.1291 66.395ZM38.3712 67.1972L37.3263 67.0018L41.9614 62.6128L42.8945 64.3307L42.5882 66.708L40.758 67.0646L45.9391 72.3527L47.6298 85.3212L46.0067 85.5709L44.2982 73.2423L38.3712 67.1972ZM52.4755 63.243L49.9312 65.6384L48.3725 64.7073L51.1867 62.0883L52.4755 63.243Z" fill="#FF7D38"/>
<path fill-rule="evenodd" clip-rule="evenodd" d="M52.3545 36.9011C51.6093 39.5564 50.3291 42.0312 48.5925 44.1737C48.5925 44.1737 48.5095 44.0172 48.9859 39.9018C49.1671 37.4446 48.3979 35.0116 46.837 33.1053C43.9811 30.4082 40.7667 28.118 37.2849 26.2994C30.8258 23.2353 27.7365 23.977 27.1463 24.2373L20.0056 28.0252C25.7693 32.9802 30.568 38.9573 34.1602 45.6557C36.4626 49.9962 33.273 55.9203 33.273 55.9203C33.273 55.9203 26.5837 55.2473 24.2768 50.8986C20.7574 44.1746 18.5204 36.8543 17.6802 29.3116L10.0371 33.3661C9.3701 33.8993 7.18405 36.1249 6.1359 42.8232C5.71401 46.7174 5.82981 50.6511 6.48006 54.5137C7.17412 56.8758 8.74811 58.8816 10.8775 60.1174C14.5976 62.0172 15.401 61.781 15.401 61.781C12.4326 62.2931 9.38539 62.1022 6.50405 61.2237C3.34066 60.2739 1.4543 59.1849 0.677781 56.2091C-0.66927 50.8447 0.746737 44.7005 3.99758 38.8917C5.05301 36.8607 6.62399 35.1429 8.55292 33.9107L7.4825 31.8928L10.0562 19.6149L15.3602 16.8013L27.1668 21.4508L28.2372 23.4686C30.4184 22.4143 32.8551 22.0041 35.2613 22.2859C41.8938 22.8519 47.792 25.1371 51.4403 29.2491C53.49 31.5812 53.3338 33.7537 52.3545 36.9011ZM12.4251 21.6932L10.5531 29.6835L15.3218 27.1538L12.4251 21.6932ZM15.9667 19.8146L18.8633 25.2751L23.5662 22.7804L15.9667 19.8146ZM16.0132 16.381L9.37494 19.9024C8.59294 20.3173 7.67819 20.4045 6.8319 20.1448C5.98561 19.8852 5.27712 19.3 4.86229 18.518L1.36705 11.9291C0.958084 11.1477 0.875053 10.2361 1.1361 9.39366C1.39714 8.55118 1.98103 7.84628 2.76019 7.43297L5.89815 5.76836L3 1.21289L4 0.712891L4.86229 2.21289L6.72176 5.33145L9.39025 3.91587C10.1723 3.50104 11.087 3.41385 11.9333 3.67347C12.7796 3.9331 13.4881 4.51828 13.9029 5.30028L17.3982 11.8892C17.6079 12.2767 17.7389 12.702 17.7834 13.1404C17.828 13.5788 17.7853 14.0217 17.6578 14.4435C17.5303 14.8654 17.3206 15.2578 17.0406 15.5981C16.7607 15.9385 16.4162 16.22 16.0269 16.4265L16.0132 16.381Z" fill="#242424"/>
<path d="M84.796 39.6454H88.869C92.0485 39.5294 93.6383 38.1021 93.6383 35.3635C93.6383 33.9246 93.1973 32.9035 92.3154 32.3001C91.4567 31.6966 90.1571 31.3949 88.4165 31.3949H84.796V39.6454ZM79.7483 50.7853V27.2175H88.4513C95.4137 27.2175 98.8949 29.9328 98.8949 35.3635C98.8949 38.1021 98.0014 40.2024 96.2144 41.6645C94.4506 43.1034 91.8629 43.8229 88.4513 43.8229H84.796V50.7853H79.7483Z" fill="#242424"/>
<path d="M102.724 50.7853V27.2175H108.642L114.804 38.2877L121.001 27.2175H126.919V50.7853H121.871V34.4584L116.51 44.171H113.063L107.772 34.7021V50.7853H102.724Z" fill="#242424"/>
<path d="M131.792 50.7853V27.2175H136.84V36.2338H138.511L145.856 27.2175H151.566L142.271 38.427L152.157 50.7853H146.1L137.954 40.4113H136.84V50.7853H131.792Z" fill="#242424"/>
<path d="M165.386 50.7853V27.2175H178.615V31.3949H170.434V50.7853H165.386Z" fill="#242424"/>
<path d="M186.796 39.6454H190.869C194.048 39.5294 195.638 38.1021 195.638 35.3635C195.638 33.9246 195.197 32.9035 194.315 32.3001C193.456 31.6966 192.157 31.3949 190.416 31.3949H186.796V39.6454ZM181.748 50.7853V27.2175H190.451C197.413 27.2175 200.894 29.9328 200.894 35.3635C200.894 38.1021 200.001 40.2024 198.214 41.6645C196.45 43.1034 193.862 43.8229 190.451 43.8229H186.796V50.7853H181.748Z" fill="#242424"/>
<path d="M202.287 27.2175H207.787L214.715 39.5758L220.389 27.2175H225.959L217.291 44.6235C215.086 48.7314 212.22 50.7853 208.692 50.7853H206.987V46.399H208.588C210.282 46.399 211.466 45.6331 212.139 44.1014L202.287 27.2175Z" fill="#242424"/>
<path d="M229.092 50.7853V27.2175H249.109V50.7853H244.061V31.3949H234.14V50.7853H229.092Z" fill="#242424"/>
<path d="M253.983 50.7853V27.2175H274V50.7853H268.952V31.3949H259.031V50.7853H253.983Z" fill="#242424"/>
<path d="M80.4868 73.288H84.0956V67.2887H81.1366V69.2034C81.1366 70.8589 80.92 72.2204 80.4868 73.288ZM78.7578 73.288H79.5004C79.9337 72.1121 80.1503 70.6462 80.1503 68.8901V66.3604H85.082V73.288H86.0103V76.2702H85.024V74.2163H79.7441V76.2702H78.7578V73.288Z" fill="#242424"/>
<path d="M88.6212 71.2225H91.5686L90.0949 67.486L88.6212 71.2225ZM86.4745 74.2163L89.5959 66.3604H90.6287L93.785 74.2163H92.7406L91.94 72.1508H88.2615L87.4608 74.2163H86.4745Z" fill="#242424"/>
<path d="M94.8294 74.2163V66.3604H99.9352V67.2887H95.8157V69.5979H99.2389V70.5263H95.8157V73.288H99.9352V74.2163H94.8294Z" fill="#242424"/>
<path d="M101.212 74.2163V66.3604H102.256L104.89 70.8512L107.536 66.3604H108.58V74.2163H107.594V67.8805L105.227 72.0116H104.542L102.198 67.9618V74.2163H101.212Z" fill="#242424"/>
<path d="M114.208 69.7488H115.531C116.923 69.7488 117.62 69.3233 117.62 68.4723C117.62 67.6833 116.962 67.2887 115.647 67.2887H114.208V69.7488ZM114.208 73.288H115.995C117.31 73.288 117.968 72.8432 117.968 71.9535C117.968 71.1026 117.272 70.6771 115.879 70.6771H114.208V73.288ZM113.222 74.2163V66.3604H115.659C116.626 66.3604 117.368 66.5345 117.887 66.8826C118.413 67.223 118.676 67.7142 118.676 68.3563C118.676 69.2924 118.215 69.888 117.295 70.1433C117.836 70.2903 118.258 70.5263 118.56 70.8512C118.869 71.1683 119.024 71.5745 119.024 72.0696C119.024 73.5008 118.018 74.2163 116.007 74.2163H113.222Z" fill="#242424"/>
<path d="M119.546 67.2887V66.3604H125.406V67.2887H122.969V74.2163H121.983V67.2887H119.546Z" fill="#242424"/>
<path d="M126.799 70.2245C126.799 71.1683 127.069 71.9458 127.611 72.557C128.152 73.1604 128.81 73.4621 129.583 73.4621C130.357 73.4621 131.015 73.1604 131.556 72.557C132.098 71.9458 132.368 71.1683 132.368 70.2245C132.368 69.2885 132.098 68.5381 131.556 67.9734C131.022 67.4009 130.365 67.1147 129.583 67.1147C128.802 67.1147 128.141 67.4009 127.599 67.9734C127.065 68.5381 126.799 69.2885 126.799 70.2245ZM125.754 70.2245C125.754 68.9868 126.11 68.0159 126.822 67.3119C127.533 66.6002 128.454 66.2444 129.583 66.2444C130.713 66.2444 131.634 66.6002 132.345 67.3119C133.057 68.0159 133.413 68.9868 133.413 70.2245C133.413 71.47 133.053 72.468 132.334 73.2184C131.622 73.961 130.705 74.3324 129.583 74.3324C128.462 74.3324 127.541 73.961 126.822 73.2184C126.11 72.468 125.754 71.47 125.754 70.2245Z" fill="#242424"/>
<path d="M135.676 70.503H137.091C138.499 70.4798 139.203 69.9267 139.203 68.8437C139.203 68.2867 139.014 67.8883 138.635 67.6484C138.256 67.4086 137.71 67.2887 136.998 67.2887H135.676V70.503ZM134.689 74.2163V66.3604H137.01C139.176 66.3604 140.259 67.1882 140.259 68.8437C140.259 69.7256 139.969 70.3793 139.389 70.8047C138.816 71.2225 138.023 71.4314 137.01 71.4314H135.676V74.2163H134.689Z" fill="#242424"/>
<path d="M140.723 66.3604H141.965L144.541 70.9904L146.641 66.3604H147.686L145.052 72.1044L145.028 72.1624H145.017C144.7 72.8045 144.348 73.3074 143.961 73.6709C143.574 74.0345 143.091 74.2163 142.51 74.2163H141.942V73.2184H142.476C143.118 73.2184 143.624 72.8045 143.996 71.9768L140.723 66.3604Z" fill="#242424"/>
<path d="M152.571 70.2245C152.571 71.1683 152.842 71.9458 153.383 72.557C153.925 73.1604 154.582 73.4621 155.356 73.4621C156.13 73.4621 156.787 73.1604 157.329 72.557C157.87 71.9458 158.141 71.1683 158.141 70.2245C158.141 69.2885 157.87 68.5381 157.329 67.9734C156.795 67.4009 156.137 67.1147 155.356 67.1147C154.575 67.1147 153.913 67.4009 153.372 67.9734C152.838 68.5381 152.571 69.2885 152.571 70.2245ZM148.73 74.2163V66.3604H149.716V69.5979H151.55C151.666 68.5458 152.068 67.7258 152.757 67.1379C153.453 66.5422 154.316 66.2444 155.344 66.2444C156.474 66.2444 157.394 66.6002 158.106 67.3119C158.826 68.0159 159.185 68.9868 159.185 70.2245C159.185 71.47 158.826 72.468 158.106 73.2184C157.387 73.961 156.466 74.3324 155.344 74.3324C154.269 74.3324 153.38 73.9881 152.676 73.2996C151.972 72.6111 151.589 71.6867 151.527 70.5263H149.716V74.2163H148.73Z" fill="#242424"/>
<path d="M162.899 74.2163L165.904 70.0969L163.084 66.3604H164.222L166.624 69.5979H167.192V66.3604H168.179V69.5979H168.736L171.149 66.3604H172.286L169.467 70.0969L172.472 74.2163H171.219L168.561 70.5263H168.179V74.2163H167.192V70.5263H166.798L164.152 74.2163H162.899Z" fill="#242424"/>
<path d="M173.516 74.2163V66.3604H174.503V72.7542L178.796 66.3604H179.841V74.2163H178.854V67.8341L174.561 74.2163H173.516Z" fill="#242424"/>
<path d="M181.117 71.7447H182.15C182.15 72.2398 182.347 72.6498 182.742 72.9747C183.144 73.2996 183.74 73.4621 184.529 73.4621C185.163 73.4621 185.677 73.3228 186.072 73.0443C186.474 72.7581 186.675 72.3945 186.675 71.9535C186.675 71.5513 186.478 71.238 186.084 71.0136C185.689 70.7893 185.155 70.6771 184.482 70.6771H183.554V69.7488H184.355C185.708 69.7488 186.385 69.3233 186.385 68.4723C186.385 68.0701 186.192 67.7451 185.805 67.4976C185.426 67.2423 184.931 67.1147 184.32 67.1147C183.639 67.1147 183.136 67.2694 182.811 67.5788C182.494 67.8805 182.335 68.2789 182.335 68.774H181.303C181.303 68.4569 181.357 68.1552 181.465 67.8689C181.581 67.575 181.751 67.3042 181.976 67.0566C182.208 66.8091 182.525 66.6118 182.927 66.4648C183.33 66.3179 183.794 66.2444 184.32 66.2444C185.256 66.2444 186.01 66.4455 186.583 66.8478C187.155 67.25 187.441 67.7529 187.441 68.3563C187.441 68.8823 187.306 69.2962 187.035 69.5979C186.764 69.8919 186.358 70.0969 185.817 70.2129C187.093 70.4528 187.731 71.0716 187.731 72.0696C187.731 72.7117 187.433 73.2493 186.838 73.6825C186.25 74.1158 185.48 74.3324 184.529 74.3324C183.925 74.3324 183.395 74.255 182.939 74.1003C182.482 73.9456 182.127 73.7406 181.871 73.4853C181.616 73.23 181.426 72.9554 181.303 72.6614C181.179 72.3674 181.117 72.0619 181.117 71.7447Z" fill="#242424"/>
<path d="M189.008 74.2163V66.3604H189.994V69.5979H194.114V66.3604H195.1V74.2163H194.114V70.5263H189.994V74.2163H189.008Z" fill="#242424"/>
<path d="M197.711 73.288H199.034C200.504 73.288 201.238 72.7349 201.238 71.6286C201.238 71.0716 201.049 70.6732 200.67 70.4334C200.291 70.1936 199.745 70.0737 199.034 70.0737H197.711V73.288ZM196.724 74.2163V66.3604H197.711V69.1454H199.045C201.211 69.1454 202.294 69.9731 202.294 71.6286C202.294 72.5105 202.004 73.1642 201.424 73.5897C200.852 74.0075 200.059 74.2163 199.045 74.2163H196.724Z" fill="#242424"/>
<path d="M206.588 74.2163V66.3604H207.632L210.266 70.8512L212.912 66.3604H213.956V74.2163H212.97V67.8805L210.603 72.0116H209.918L207.574 67.9618V74.2163H206.588Z" fill="#242424"/>
<path d="M215.581 74.2163V66.3604H220.687V67.2887H216.567V69.5979H219.991V70.5263H216.567V73.288H220.687V74.2163H215.581Z" fill="#242424"/>
<path d="M221.383 67.2887V66.3604H227.243V67.2887H224.806V74.2163H223.82V67.2887H221.383Z" fill="#242424"/>
<path d="M228.81 71.2225H231.757L230.283 67.486L228.81 71.2225ZM226.663 74.2163L229.784 66.3604H230.817L233.973 74.2163H232.929L232.128 72.1508H228.45L227.649 74.2163H226.663Z" fill="#242424"/>
<path d="M234.438 74.2163V73.2184H234.763C235.598 73.2184 236.031 71.8801 236.062 69.2034V66.3604H240.646V74.2163H239.659V67.2887H237.049V69.2034C237.049 70.9517 236.843 72.2243 236.433 73.0211C236.031 73.8179 235.486 74.2163 234.797 74.2163H234.438Z" fill="#242424"/>
<path d="M241.69 74.2163V73.2184H242.015C242.851 73.2184 243.284 71.8801 243.315 69.2034V66.3604H247.898V74.2163H246.912V67.2887H244.301V69.2034C244.301 70.9517 244.096 72.2243 243.686 73.0211C243.284 73.8179 242.738 74.2163 242.05 74.2163H241.69Z" fill="#242424"/>
<path d="M248.943 66.3604H250.184L252.76 70.9904L254.861 66.3604H255.905L253.271 72.1044L253.248 72.1624H253.236C252.919 72.8045 252.567 73.3074 252.18 73.6709C251.793 74.0345 251.31 74.2163 250.73 74.2163H250.161V73.2184H250.695C251.337 73.2184 251.844 72.8045 252.215 71.9768L248.943 66.3604Z" fill="#242424"/>
</svg>
