<svg width="29" height="29" viewBox="0 0 29 29" fill="none" xmlns="http://www.w3.org/2000/svg">
<circle cx="14.146" cy="14.146" r="14.146" fill="#2F89CE"/>
<path d="M7.32129 13.7033L10.5735 14.9159L11.8413 18.995C11.8965 19.2706 12.2272 19.3257 12.4477 19.1604L14.2667 17.6721C14.4321 17.5067 14.7077 17.5067 14.9282 17.6721L18.1804 20.0423C18.4009 20.2077 18.7316 20.0974 18.7867 19.8218L21.2121 8.24614C21.2672 7.97053 20.9916 7.69492 20.716 7.80516L7.32129 12.9867C6.99056 13.0969 6.99056 13.593 7.32129 13.7033ZM11.676 14.3096L18.0701 10.3959C18.1804 10.3408 18.2906 10.5062 18.1804 10.5613L12.9438 15.4672C12.7784 15.6325 12.613 15.853 12.613 16.1286L12.4477 17.4516C12.4477 17.6169 12.1721 17.6721 12.1169 17.4516L11.4555 15.0262C11.2901 14.7506 11.4004 14.4198 11.676 14.3096Z" fill="white"/>
</svg>
