<svg width="29" height="30" viewBox="0 0 29 30" fill="none" xmlns="http://www.w3.org/2000/svg">
<circle cx="14.3979" cy="15.0669" r="14.146" fill="#48C95F"/>
<path d="M17.5255 16.3394C17.3503 16.2517 16.4893 15.8281 16.3286 15.7696C16.1681 15.7111 16.0511 15.6819 15.9344 15.8573C15.8177 16.0328 15.482 16.4271 15.3798 16.5441C15.2776 16.661 15.1754 16.6755 15.0004 16.5878C14.8252 16.5001 14.2608 16.3153 13.5918 15.7184C13.0712 15.2538 12.7196 14.6803 12.6174 14.5051C12.5152 14.3297 12.6064 14.235 12.6941 14.1477C12.7729 14.0691 12.8693 13.943 12.9568 13.8408C13.0443 13.7386 13.0735 13.6654 13.132 13.5487C13.1905 13.4317 13.1612 13.3295 13.1175 13.2418C13.0737 13.1541 12.7234 12.2919 12.5774 11.9413C12.4352 11.5998 12.2909 11.6461 12.1833 11.6407C12.0813 11.6355 11.9643 11.6346 11.8476 11.6346C11.7309 11.6346 11.5412 11.6784 11.3805 11.8538C11.22 12.0292 10.7674 12.4528 10.7674 13.315C10.7674 14.1772 11.395 15.0101 11.4827 15.1268C11.5702 15.2438 12.7177 17.0128 14.4748 17.7716C14.8928 17.9522 15.2189 18.0598 15.4734 18.1405C15.893 18.2738 16.2748 18.2551 16.5767 18.21C16.9133 18.1597 17.6129 17.7864 17.7589 17.3773C17.9049 16.9682 17.9049 16.6173 17.8611 16.5443C17.8174 16.4711 17.7007 16.4271 17.5255 16.3394Z" fill="white"/>
<path d="M18.9328 10.3014L18.9328 10.3014C20.1215 11.4913 20.5008 13.0594 20.5 14.9998C20.4985 18.5719 17.8893 21.4173 14.3275 21.4173H14.3249C14.3249 21.4173 14.3248 21.4173 14.3247 21.4173C13.2351 21.4168 12.1645 21.1434 11.2144 20.6251L11.0401 20.53L10.8481 20.5803L7.96985 21.3353L8.73569 18.5381L8.79078 18.3369L8.68651 18.1562C8.11723 17.1696 7.81738 16.0499 7.81781 14.9019V14.9019C7.81912 11.2842 10.3039 8.5 14 8.5C15.9073 8.5 17.7281 9.09516 18.9328 10.3014Z" stroke="white"/>
</svg>
