<svg width="85" height="84" viewBox="0 0 85 84" fill="none" xmlns="http://www.w3.org/2000/svg">
<circle cx="42.5002" cy="41.717" r="41.6096" fill="url(#paint0_linear_115_10028)"/>
<path d="M51.9388 45.114C51.4464 44.8675 49.0265 43.6769 48.5748 43.5125C48.1238 43.3482 47.7951 43.266 47.4671 43.7591C47.139 44.2521 46.1956 45.3606 45.9083 45.6893C45.621 46.018 45.3337 46.0587 44.842 45.8122C44.3496 45.5657 42.7632 45.0463 40.883 43.3686C39.4195 42.0629 38.4314 40.4509 38.1441 39.9585C37.8568 39.4655 38.1132 39.1992 38.3598 38.954C38.5813 38.7331 38.8522 38.3787 39.0981 38.0914C39.3439 37.8041 39.4261 37.5984 39.5905 37.2703C39.7548 36.9416 39.6726 36.6543 39.5497 36.4078C39.4268 36.1612 38.442 33.738 38.0317 32.7525C37.632 31.7927 37.2264 31.9228 36.924 31.9077C36.6373 31.8933 36.3086 31.8906 35.9806 31.8906C35.6525 31.8906 35.1193 32.0136 34.6677 32.5066C34.2167 32.9997 32.9446 34.1903 32.9446 36.6135C32.9446 39.0368 34.7084 41.3779 34.955 41.7059C35.2009 42.0347 38.4262 47.0067 43.3647 49.1394C44.5395 49.647 45.456 49.9494 46.1713 50.1762C47.3507 50.5509 48.4236 50.4983 49.2723 50.3714C50.2184 50.2301 52.1847 49.1808 52.595 48.031C53.0052 46.8812 53.0052 45.895 52.8822 45.6899C52.7593 45.4842 52.4313 45.3606 51.9388 45.114Z" fill="white"/>
<path d="M55.4734 28.5666L55.4732 28.5664C52.129 25.218 47.6911 23.377 42.951 23.375L55.4734 28.5666ZM55.4734 28.5666C58.8188 31.9155 60.6556 36.3564 60.6526 41.0912V41.0916M55.4734 28.5666L60.6526 41.0916M60.6526 41.0916C60.6485 50.8507 52.704 58.7941 42.9503 58.7941H42.9432C42.943 58.7941 42.9427 58.7941 42.9424 58.7941C39.9791 58.7928 37.0682 58.0492 34.4854 56.6401L33.7882 56.2597L33.0201 56.4612L25.927 58.3217M60.6526 41.0916L25.927 58.3217M25.927 58.3217L27.8074 51.4536L28.0278 50.6487L27.6107 49.9259C26.063 47.2438 25.2475 44.1993 25.2487 41.0767V41.0767C25.2522 31.3175 33.1961 23.3754 42.9502 23.375L25.927 58.3217Z" stroke="white" stroke-width="4"/>
<defs>
<linearGradient id="paint0_linear_115_10028" x1="42.5002" y1="0.107422" x2="42.5002" y2="83.3266" gradientUnits="userSpaceOnUse">
<stop stop-color="#19C940"/>
<stop offset="0.9999" stop-color="#3EB859"/>
<stop offset="1" stop-color="#10A330"/>
</linearGradient>
</defs>
</svg>
