<svg width="54" height="55" viewBox="0 0 54 55" fill="none" xmlns="http://www.w3.org/2000/svg">
<circle cx="27" cy="27.2129" r="27" fill="#EDEDED"/>
<path d="M33 10.5456L31 8.63667L31.8894 7.7878L33 8.85083L36.1106 5.87891L37 6.72778L33 10.5456Z" fill="#19C940"/>
<circle cx="34" cy="8.21289" r="4.8" stroke="#242424" stroke-width="0.4"/>
<path d="M41.1386 30.4712C42.6583 28.9583 42.1888 25.898 39.5565 25.898L32.6304 25.9026C32.8934 24.4359 33.2744 22.0046 33.2593 21.775C33.1139 19.6009 31.728 16.9548 31.6681 16.8465C31.4153 16.3758 30.1391 15.7376 28.8548 16.0111C27.1943 16.3665 27.0247 17.4258 27.0314 17.7178C27.0314 17.7178 27.103 20.6154 27.1099 21.3886C26.3161 23.1323 23.5787 27.7146 22.7491 28.0677C22.5507 27.9476 22.3255 27.883 22.0913 27.883H13.341C12.5978 27.883 12 28.4841 12 29.2238L12.0012 41.3174C12.0532 41.9693 12.6071 42.4806 13.2613 42.4806H21.1209C21.8179 42.4806 22.3845 41.914 22.3845 41.217V40.8155C22.3845 40.8155 22.6766 40.7937 22.8092 40.8789C23.3146 41.1998 23.939 41.6036 24.7536 41.6036H36.4824C40.8675 41.6036 40.3968 37.7113 39.9962 37.1805C40.7371 36.3738 41.1953 34.951 40.5698 33.827C41.0498 33.3182 41.8946 31.9195 41.1386 30.4712ZM20.8509 41.2147H13.259V29.1453H20.8509V41.2147ZM39.0927 30.3674L39.0211 30.6661C41.0417 31.2407 39.9663 33.5696 38.5168 33.7206L38.4452 34.0194C40.3826 34.5122 39.4584 36.9101 37.9408 37.0739L37.8693 37.3715C39.4514 37.6313 39.0683 40.3314 36.6714 40.3314L24.7416 40.3361C23.8992 40.3361 23.1318 39.3761 22.5122 39.3761H21.9714V30.0858C22.6454 29.668 23.4739 29.1258 23.9344 28.7345C24.8045 27.9925 28.3657 22.2378 28.3657 21.5176C28.3657 20.7974 28.2871 17.6818 28.2871 17.6818C28.2871 17.6818 28.9853 16.7817 30.5443 17.4383C30.5443 17.4383 31.8562 19.8985 31.9901 21.8591C31.9901 21.8591 31.3993 25.898 31.0819 27.1651H39.3524C41.3844 27.1674 40.9967 30.0686 39.0927 30.3674Z" fill="#242424"/>
</svg>
