<svg width="54" height="55" viewBox="0 0 54 55" fill="none" xmlns="http://www.w3.org/2000/svg">
<circle cx="27" cy="27.2129" r="27" fill="#EDEDED"/>
<path d="M33 10.5456L31 8.63667L31.8894 7.7878L33 8.85083L36.1106 5.87891L37 6.72778L33 10.5456Z" fill="#19C940"/>
<circle cx="34" cy="8.21289" r="4.8" stroke="#242424" stroke-width="0.4"/>
<path d="M27.9679 26.7452H28.4679V26.7451H32.3067V33.487H14.9197V26.7451H19.2584H19.2619C20.4747 27.6533 21.9791 28.1968 23.6131 28.1968C25.2472 28.1968 26.7516 27.6533 27.9644 26.7452H27.9679Z" stroke="#242424"/>
<path d="M40.5486 35.9225H40.0647V30.5999H38.0834L37.5994 25.7612H33.2906V21.4065H30.8465C30.8572 21.2458 30.8712 21.0862 30.8712 20.9225C30.8712 18.9725 30.0941 17.203 28.8385 15.8975L29.1777 15.5583L30.0453 16.4259L30.7295 15.7418L28.3102 13.3224L27.626 14.0065L28.4936 14.8741L28.1225 15.2452C27.0014 14.353 25.6127 13.7898 24.0972 13.6891V13.1806H25.5488V12.2129H21.6778V13.1806H23.1294V13.6892C21.6139 13.7899 20.2252 14.3536 19.1041 15.2453L18.733 14.8742L19.6006 14.0066L18.9165 13.3225L16.4968 15.7418L17.181 16.4259L18.0486 15.5583L18.3878 15.8975C17.1322 17.203 16.3551 18.9725 16.3551 20.9225C16.3551 21.086 16.3692 21.2457 16.3798 21.4065H13.9357V35.9225H13.4519C12.6516 35.9225 12.0002 36.5738 12.0002 37.3741C12.0002 38.1744 12.6515 38.8258 13.4518 38.8258H13.9356H14.9034H16.3549C16.3549 40.693 17.8743 42.2129 19.7419 42.2129C21.6096 42.2129 23.129 40.6931 23.129 38.8258H32.3224C32.3224 40.693 33.8418 42.2129 35.7095 42.2129C37.5771 42.2129 39.0965 40.6931 39.0965 38.8258H40.0642H40.5482C41.3485 38.8258 41.9997 38.1745 41.9997 37.3741C41.9997 36.5737 41.3489 35.9225 40.5486 35.9225ZM36.7236 26.729L37.1107 30.5999H33.2905V26.729H36.7236ZM23.6131 14.6323C27.0815 14.6323 29.9034 17.4542 29.9034 20.9226C29.9034 24.3911 27.0815 27.2129 23.6131 27.2129C20.1447 27.2129 17.3229 24.3909 17.3229 20.9225C17.3229 17.4542 20.1447 14.6323 23.6131 14.6323ZM13.9357 37.858H13.4519C13.1853 37.858 12.9681 37.6412 12.9681 37.3741C12.9681 37.1069 13.1854 36.8902 13.4519 36.8902H13.9357V37.858ZM19.7422 41.245C18.4082 41.245 17.3229 40.1597 17.3229 38.8257C17.3229 37.4916 18.4082 36.4064 19.7422 36.4064C21.0761 36.4064 22.1614 37.4917 22.1614 38.8258C22.1614 40.1598 21.0762 41.245 19.7422 41.245ZM22.9865 37.858C22.5689 36.4605 21.2731 35.4386 19.7422 35.4386C18.2112 35.4386 16.9154 36.4605 16.4978 37.858H14.9035V35.9225V22.3742H16.5012C17.1757 25.6829 20.108 28.1806 23.6131 28.1806C27.1182 28.1806 30.0505 25.6829 30.725 22.3742H32.3228V25.7613V30.6V31.5678V37.8581H22.9865V37.858ZM35.7098 41.245C34.3758 41.245 33.2905 40.1597 33.2905 38.8257C33.2905 37.4916 34.3758 36.4062 35.7098 36.4062C37.0438 36.4062 38.1291 37.4916 38.1291 38.8257C38.1291 40.1597 37.0439 41.245 35.7098 41.245ZM39.097 37.858H38.9543C38.5366 36.4605 37.2408 35.4386 35.7098 35.4386C34.7624 35.4386 33.9059 35.8306 33.2905 36.46V31.5677H38.18H39.0969V35.9225V37.858H39.097ZM40.5486 37.858H40.0647V36.8903H40.5486C40.8152 36.8903 41.0324 37.107 41.0324 37.3742C41.0324 37.6413 40.8151 37.858 40.5486 37.858Z" fill="#242424"/>
<path d="M19.7421 37.374C18.9418 37.374 18.2905 38.0253 18.2905 38.8257C18.2905 39.626 18.9418 40.2773 19.7421 40.2773C20.5424 40.2773 21.1936 39.6261 21.1936 38.8257C21.1937 38.0253 20.5424 37.374 19.7421 37.374ZM19.7421 39.3095C19.4755 39.3095 19.2583 39.0927 19.2583 38.8256C19.2583 38.5584 19.4756 38.3417 19.7421 38.3417C20.0086 38.3417 20.2259 38.5584 20.2259 38.8256C20.2259 39.0927 20.0087 39.3095 19.7421 39.3095Z" fill="#333333"/>
<path d="M35.7099 37.374C34.9095 37.374 34.2583 38.0253 34.2583 38.8257C34.2583 39.626 34.9095 40.2773 35.7099 40.2773C36.5102 40.2773 37.1614 39.6261 37.1614 38.8257C37.1615 38.0253 36.5102 37.374 35.7099 37.374ZM35.7099 39.3095C35.4432 39.3095 35.2259 39.0927 35.2259 38.8256C35.2259 38.5584 35.4432 38.3417 35.7099 38.3417C35.9765 38.3417 36.1937 38.5584 36.1937 38.8256C36.1937 39.0927 35.9765 39.3095 35.7099 39.3095Z" fill="#333333"/>
<path d="M22.1617 20.9227C22.1617 21.7231 22.8129 22.3744 23.6132 22.3744C24.4135 22.3744 25.0648 21.7232 25.0648 20.9227C25.0648 20.1223 24.4135 19.4711 23.6132 19.4711C23.531 19.4711 23.4516 19.4822 23.3727 19.4952L20.5934 16.2529L19.8584 16.8829L22.5158 19.9831C22.298 20.2371 22.1617 20.5628 22.1617 20.9227ZM24.0971 20.9227C24.0971 21.1894 23.8799 21.4067 23.6133 21.4067C23.3467 21.4067 23.1295 21.1894 23.1295 20.9227C23.1295 20.6561 23.3468 20.4388 23.6133 20.4388C23.8799 20.4389 24.0971 20.6561 24.0971 20.9227Z" fill="#333333"/>
<path d="M23.1717 26.2232L23.2511 25.2588C21.0123 25.074 19.2583 23.1694 19.2583 20.9224C19.2583 19.8589 19.6502 18.833 20.362 18.0327L19.6391 17.3896C18.7696 18.3671 18.2905 19.6217 18.2905 20.9223C18.2905 23.6693 20.4345 25.9976 23.1717 26.2232Z" fill="#333333"/>
</svg>
