<svg width="16" height="17" viewBox="0 0 16 17" fill="none" xmlns="http://www.w3.org/2000/svg">
<path d="M11.5112 11.0195L8.32761 8.79326V4.96703C8.32761 4.7867 8.18007 4.63916 7.99974 4.63916C7.81942 4.63916 7.67188 4.7867 7.67188 4.96703V8.96703C7.67188 9.07523 7.72433 9.17359 7.81286 9.23588L11.1374 11.5605C11.1932 11.5998 11.2588 11.6195 11.3243 11.6195C11.426 11.6195 11.5276 11.5703 11.5932 11.4752C11.6948 11.3277 11.6588 11.1244 11.5112 11.0195Z" fill="#332020"/>
<path d="M13.6525 3.31434C12.1377 1.79958 10.1311 0.966797 8 0.966797C5.86885 0.966797 3.86229 1.79958 2.34754 3.31434C0.832787 4.82909 0 6.83565 0 8.9668C0 11.0979 0.832787 13.1045 2.34754 14.6193C3.86229 16.134 5.86885 16.9668 8 16.9668C10.1311 16.9668 12.1377 16.134 13.6525 14.6193C15.1672 13.1045 16 11.0979 16 8.9668C16 6.83565 15.1672 4.82909 13.6525 3.31434ZM8.32787 16.3045V14.9668C8.32787 14.7865 8.18033 14.6389 8 14.6389C7.81967 14.6389 7.67213 14.7865 7.67213 14.9668V16.3045C3.88197 16.1373 0.829508 13.0848 0.662295 9.29467H2C2.18033 9.29467 2.32787 9.14712 2.32787 8.9668C2.32787 8.78647 2.18033 8.63893 2 8.63893H0.662295C0.829508 4.84876 3.88197 1.79631 7.67213 1.62909V2.9668C7.67213 3.14712 7.81967 3.29467 8 3.29467C8.18033 3.29467 8.32787 3.14712 8.32787 2.9668V1.62909C12.118 1.79631 15.1705 4.84876 15.3377 8.63893H14C13.8197 8.63893 13.6721 8.78647 13.6721 8.9668C13.6721 9.14712 13.8197 9.29467 14 9.29467H15.3377C15.1705 13.0848 12.118 16.1373 8.32787 16.3045Z" fill="#332020"/>
</svg>
