<svg width="54" height="55" viewBox="0 0 54 55" fill="none" xmlns="http://www.w3.org/2000/svg">
<circle cx="27" cy="27.2129" r="27" fill="white"/>
<path d="M33.4697 23.5932C35.0349 23.5932 36.3066 22.3215 36.3066 20.7563C36.3066 19.1911 35.0349 17.9194 33.4697 17.9194C31.9045 17.9194 30.6328 19.1911 30.6328 20.7563C30.6328 22.3215 31.9045 23.5932 33.4697 23.5932ZM33.4697 18.8977C34.4936 18.8977 35.3284 19.7324 35.3284 20.7563C35.3284 21.7802 34.4936 22.615 33.4697 22.615C32.4458 22.615 31.6111 21.7802 31.6111 20.7563C31.6111 19.7324 32.4458 18.8977 33.4697 18.8977Z" fill="#242424"/>
<path d="M25.9504 24.0103L21.9265 27.6494L21.4765 27.1472C21.2939 26.9451 20.9874 26.932 20.7853 27.1146C20.5831 27.2972 20.57 27.6037 20.7526 27.8059L21.2026 28.3081L20.5766 28.8755L20.1266 28.3733C19.944 28.1711 19.6375 28.1581 19.4353 28.3407C19.2331 28.5233 19.2201 28.8298 19.4027 29.032L19.8527 29.5341L17.9614 31.2363C17.7592 31.4189 17.7462 31.7254 17.9288 31.9276C18.1114 32.1297 18.4179 32.1428 18.6201 31.9602L20.5113 30.258L22.5917 32.5602C22.7744 32.7623 23.0809 32.7754 23.283 32.5928C23.4852 32.4102 23.4983 32.1037 23.3156 31.9015L21.2352 29.5994L21.8613 29.032L22.957 30.245C24.17 31.5819 26.2895 31.6471 27.6917 30.382C29.0938 29.1168 29.2634 27.0298 28.0829 25.6342C28.0764 25.6277 28.0764 25.6277 28.0699 25.6212L26.6417 24.0429C26.4591 23.8408 26.1525 23.8277 25.9504 24.0103ZM27.3395 26.2733C28.1743 27.2646 28.0373 28.745 27.033 29.6515C26.0352 30.5515 24.5287 30.5254 23.6809 29.5863L22.5852 28.3733L26.2504 25.0668L27.3395 26.2733Z" fill="#242424"/>
<path d="M38.5109 15.2129H26.3546C26.2372 15.2129 26.1263 15.252 26.035 15.3303L9.17011 29.8474C9.06576 29.9322 9.00707 30.0626 9.00055 30.1996C8.99402 30.3365 9.0462 30.467 9.14402 30.5648L21.3003 42.5059C21.3981 42.5972 21.5221 42.6428 21.646 42.6428C21.7568 42.6428 21.8742 42.6037 21.9655 42.532L38.8304 28.0605C38.9348 27.9692 39 27.8322 39 27.6888V15.702C39 15.4346 38.7783 15.2129 38.5109 15.2129ZM38.0283 27.4605L21.6721 41.4885L10.2136 30.2387L26.5437 16.1846H38.0283V27.4605Z" fill="#242424"/>
<path d="M38.1911 30.8585L21.6718 45.03L9.83509 33.2063C9.64596 33.0171 9.33293 33.0171 9.1438 33.2063C8.95467 33.3954 8.95467 33.7084 9.1438 33.8976L21.3001 46.0408C21.3979 46.1386 21.5218 46.1843 21.6457 46.1843C21.7566 46.1843 21.874 46.1452 21.9653 46.0734L38.8302 31.6019C39.0324 31.4259 39.0585 31.1128 38.8824 30.9107C38.7063 30.7085 38.3933 30.6824 38.1911 30.8585Z" fill="#242424"/>
<path d="M33 10.5461L31 8.63716L31.8894 7.78829L33 8.85132L36.1106 5.87939L37 6.72827L33 10.5461Z" fill="#19C940"/>
<circle cx="34" cy="8.21289" r="4.8" stroke="#242424" stroke-width="0.4"/>
</svg>
