<svg width="54" height="55" viewBox="0 0 54 55" fill="none" xmlns="http://www.w3.org/2000/svg">
<circle cx="27" cy="27.2129" r="27" fill="white"/>
<path d="M38.5018 38.1183L30.4381 30.0544C30.2076 29.824 29.9268 29.6738 29.6308 29.6035L33.593 25.6413C33.5976 25.6367 33.6118 25.6342 33.6291 25.6387C35.1016 26.0141 36.6724 25.601 37.7284 24.5602C38.4783 23.821 38.9291 22.8359 38.9981 21.7865C39.0215 21.4309 38.8276 21.1064 38.5043 20.9598C38.1849 20.8152 37.8181 20.8822 37.5695 21.1307L36.2074 22.4929L34.2496 21.9683L33.725 20.0105L35.0871 18.6485C35.3357 18.3999 35.4027 18.033 35.258 17.7135C35.1117 17.3904 34.7871 17.1977 34.4323 17.2197C33.3939 17.2878 32.4165 17.7308 31.68 18.4672C30.6049 19.5423 30.1787 21.1258 30.5676 22.5997C30.5722 22.6174 30.5699 22.6319 30.5652 22.6365L25.2808 27.9209L17.3735 20.0137C17.6082 19.5393 17.5294 18.9478 17.1349 18.5533C17.116 18.5344 17.0954 18.5175 17.0731 18.5027L15.2405 17.281C15.0799 17.1738 14.866 17.1951 14.7295 17.3315L14.1186 17.9424C13.9821 18.0789 13.9609 18.2928 14.068 18.4534L15.2898 20.286C15.3046 20.3082 15.3216 20.3289 15.3404 20.3478C15.5878 20.5952 15.9127 20.7188 16.2376 20.7188C16.4309 20.7188 16.6239 20.674 16.8008 20.5864L24.708 28.4936L19.4123 33.7894C19.4077 33.794 19.3935 33.7966 19.3761 33.7921C17.9034 33.4165 16.3327 33.8298 15.2768 34.8706C14.5269 35.6098 14.076 36.5948 14.007 37.6443C13.9837 38 14.1775 38.3245 14.5009 38.471C14.8203 38.6157 15.1871 38.5485 15.4356 38.3001L16.7977 36.9379L18.7555 37.4625L19.28 39.4203L17.918 40.7823C17.6694 41.0308 17.6024 41.3978 17.7471 41.7173C17.8855 42.023 18.183 42.2129 18.5154 42.2129C18.5344 42.2129 18.5536 42.2122 18.5728 42.211C19.6112 42.143 20.5886 41.7 21.3251 40.9636C22.4001 39.8885 22.8264 38.305 22.4375 36.831C22.4328 36.8134 22.4352 36.7989 22.4399 36.7943L26.3898 32.8444C26.4617 33.1473 26.6158 33.4253 26.8415 33.651L34.9052 41.7148C35.2368 42.0464 35.6723 42.2122 36.1079 42.2122C36.5434 42.2122 36.979 42.0464 37.3106 41.7148L38.5017 40.5237C38.8229 40.2024 38.9998 39.7753 38.9998 39.321C39 38.8666 38.8231 38.4395 38.5018 38.1183ZM15.938 19.7982L14.9261 18.2804L15.0674 18.139L16.5853 19.1508C16.7407 19.331 16.7331 19.6042 16.5622 19.7751C16.3913 19.946 16.118 19.9536 15.938 19.7982ZM28.0327 30.0544L26.8416 31.2456C26.83 31.2571 26.8191 31.2691 26.808 31.2808L26.4815 30.9544C26.3948 30.8677 26.3471 30.7524 26.3471 30.6298C26.3471 30.5238 26.3829 30.4233 26.4487 30.342L27.1292 29.6615C27.2105 29.5958 27.3109 29.5599 27.4169 29.5599C27.5395 29.5599 27.6547 29.6077 27.7414 29.6944L28.0679 30.0209L28.0673 30.0214C28.0558 30.0325 28.044 30.0431 28.0327 30.0544ZM31.1379 23.2093C31.3469 23.0003 31.4284 22.6876 31.3507 22.3932C31.035 21.1969 31.3807 19.9121 32.2527 19.04C32.8501 18.4427 33.643 18.0832 34.4851 18.0281C34.4958 18.0272 34.5106 18.0264 34.5202 18.0478C34.5272 18.0631 34.5229 18.0674 34.5144 18.0759L32.987 19.6032C32.8847 19.7056 32.8448 19.8546 32.8822 19.9944L33.5279 22.4039C33.5653 22.5436 33.6745 22.6527 33.8142 22.6902L36.2237 23.3358C36.3635 23.3732 36.5126 23.3333 36.6148 23.231L38.1423 21.7036C38.1511 21.6948 38.1551 21.6909 38.1701 21.6977C38.1917 21.7075 38.1907 21.7225 38.19 21.7335C38.1341 22.5847 37.7683 23.3838 37.1599 23.9834C36.3048 24.8263 35.0287 25.1598 33.8293 24.8539C33.5328 24.7784 33.2304 24.8586 33.0203 25.0686L28.6408 29.4482L28.3143 29.1218C28.2022 29.0097 28.0726 28.9214 27.932 28.859L32.3383 24.4526C32.4965 24.2944 32.4965 24.038 32.3383 23.8799C32.1802 23.7218 31.9238 23.7218 31.7657 23.8799L26.5008 29.1409L25.8537 28.4938L31.1379 23.2093ZM21.8672 36.2216C21.6583 36.4306 21.5767 36.7433 21.6544 37.0376C21.9701 38.234 21.6245 39.5189 20.7524 40.3909C20.155 40.9883 19.3622 41.3477 18.5199 41.4028C18.5093 41.4036 18.4946 41.4045 18.4849 41.3831C18.478 41.3678 18.4822 41.3636 18.4907 41.355L20.0181 39.8277C20.1204 39.7253 20.1604 39.5762 20.1229 39.4365L19.4773 37.0271C19.4398 36.8873 19.3307 36.7782 19.1909 36.7407L16.7815 36.0951C16.7469 36.0858 16.7117 36.0813 16.6767 36.0813C16.5707 36.0813 16.4673 36.1229 16.3903 36.1998L14.8628 37.7273C14.8541 37.736 14.8502 37.74 14.8351 37.7332C14.8135 37.7234 14.8145 37.7077 14.8151 37.6973C14.8711 36.8461 15.2369 36.0471 15.8453 35.4474C16.7003 34.6046 17.9765 34.271 19.1758 34.5769C19.4725 34.6525 19.7748 34.5723 19.9848 34.3622L25.2807 29.0663L25.9278 29.7134L20.6667 34.9783C20.5086 35.1365 20.5086 35.3929 20.6667 35.551C20.7458 35.6301 20.8495 35.6696 20.9531 35.6696C21.0567 35.6696 21.1604 35.6301 21.2394 35.551L25.6458 31.1447C25.7083 31.2854 25.7965 31.4149 25.9086 31.5271L26.2351 31.8535L21.8672 36.2216ZM37.9291 39.9509L36.7381 41.142C36.3907 41.4894 35.8255 41.4895 35.4781 41.142L27.4143 33.0782C27.2461 32.9099 27.1533 32.6862 27.1533 32.4483C27.1533 32.2185 27.2404 32.0026 27.3978 31.8365L28.6232 30.6111C28.7945 30.4487 29.0147 30.3666 29.2354 30.3666C29.4635 30.3666 29.6917 30.4535 29.8653 30.6272L37.9291 38.691C38.0973 38.8592 38.1901 39.0829 38.1901 39.3209C38.1901 39.5589 38.0974 39.7826 37.9291 39.9509Z" fill="#242424"/>
<path d="M29.1827 31.8232C29.0246 31.6651 28.7682 31.6651 28.6101 31.8232C28.4519 31.9814 28.4519 32.2377 28.6101 32.3959L36.1119 39.8978C36.191 39.9768 36.2946 40.0164 36.3982 40.0164C36.5019 40.0164 36.6055 39.9768 36.6846 39.8978C36.8427 39.7396 36.8427 39.4832 36.6846 39.325L29.1827 31.8232Z" fill="#242424"/>
<path d="M33 10.5461L31 8.63716L31.8894 7.78829L33 8.85132L36.1106 5.87939L37 6.72827L33 10.5461Z" fill="#19C940"/>
<circle cx="34" cy="8.21289" r="4.8" stroke="#242424" stroke-width="0.4"/>
</svg>
