<svg width="54" height="55" viewBox="0 0 54 55" fill="none" xmlns="http://www.w3.org/2000/svg">
<circle cx="27" cy="27.2129" r="27" fill="white"/>
<path d="M19.8873 39.8953L19.8837 39.3563C21.0528 40.0691 23.3655 40.4234 25.402 40.4498C27.8214 40.4813 29.9585 40.0908 30.9857 39.4561L30.9899 40.0534L30.9939 40.0549L30.9895 40.0549C30.9901 40.1365 30.9205 40.2232 30.8623 40.2809C30.3025 40.8374 28.2578 41.3816 25.4332 41.3447C21.7983 41.297 19.8908 40.3759 19.8873 39.8953ZM33.5221 41.3413C33.5221 41.4041 33.5084 41.4662 33.482 41.5231C33.2692 42.0044 32.2971 42.4987 30.882 42.8452C29.3306 43.225 27.3269 43.4194 25.2404 43.3923C20.0913 43.3256 16.9203 42.019 16.9137 41.1116C16.9095 40.5429 18.0535 40.0249 19.183 39.7059L19.1844 39.9003C19.1889 40.5361 19.8702 41.0801 21.1547 41.4732C22.2956 41.8224 23.8118 42.0264 25.4239 42.0474C28.1741 42.0833 30.5588 41.5737 31.3578 40.7792L31.3691 40.7678C31.5855 40.5482 31.6942 40.3067 31.6925 40.0494L31.6852 40.0495L31.6925 40.0156C33.0283 40.4889 33.52 41 33.5221 41.3413ZM30.9783 38.4548C30.9789 38.5358 30.9088 38.6218 30.8515 38.6795C30.2902 39.2375 28.2413 39.7831 25.4112 39.7465C23.9987 39.7283 22.6396 39.5622 21.5839 39.2793C20.5572 39.0042 20.0389 38.6767 19.8774 38.4418L19.8692 37.2966C21.0341 38.012 23.3478 38.3675 25.3949 38.3941C27.8121 38.4254 29.9459 38.0367 30.9712 37.4045L30.9783 38.4548ZM30.9636 36.4036C30.9642 36.4848 30.8949 36.5706 30.837 36.6285C30.2779 37.1842 28.232 37.7275 25.4039 37.691C22.2505 37.65 20.21 36.9186 19.8625 36.3763L19.8543 35.229C21.0181 35.9461 23.3323 36.3023 25.3834 36.3289C27.7984 36.3602 29.9311 35.9709 30.956 35.3382L30.9636 36.4036ZM30.949 34.336C30.9496 34.4176 30.8799 34.5043 30.8219 34.5618C30.2624 35.1182 28.2178 35.6623 25.3926 35.6258C22.2275 35.5848 20.1881 34.8503 19.8478 34.3063L19.8396 33.1602C21.0039 33.8759 23.3174 34.2317 25.3663 34.2586C27.7827 34.2898 29.9163 33.9007 30.9416 33.268L30.949 34.336ZM30.9342 32.2666C30.9348 32.3479 30.8665 32.4334 30.8073 32.492C30.248 33.0481 28.2025 33.5921 25.3754 33.5556C22.2168 33.5142 20.1775 32.7821 19.833 32.2393L19.8248 31.0888C20.991 31.8037 23.3045 32.1588 25.3485 32.1855C27.7662 32.2167 29.901 31.8272 30.9267 31.1938L30.9342 32.2666ZM30.9194 30.1925C30.92 30.2738 30.8512 30.3587 30.792 30.4178C30.2321 30.9745 28.1856 31.5189 25.3576 31.4824C22.2142 31.4415 20.1723 30.7119 19.8181 30.1703L19.8095 28.9937C20.9171 29.7074 23.1619 30.0977 25.3849 30.1264C27.4395 30.1534 29.7554 29.8552 30.9119 29.1632L30.9194 30.1925ZM30.9055 28.2621C30.569 28.7921 28.5459 29.4647 25.3941 29.4234C21.7302 29.376 19.807 28.4552 19.8035 27.9749L19.8023 27.9749L19.7949 26.934C20.1233 27.1431 20.564 27.3301 21.117 27.4952C22.2648 27.8365 23.776 28.0359 25.3715 28.0565C27.4239 28.0832 29.7398 27.7851 30.8972 27.0935L30.9055 28.2621ZM30.8908 26.1938C30.5494 26.7227 28.525 27.3943 25.3808 27.3533C23.8481 27.3333 22.405 27.1443 21.3175 26.8211C20.1486 26.4736 19.8071 26.096 19.7878 25.9224L19.7802 24.8627C20.1065 25.0705 20.5437 25.2568 21.0917 25.4215C22.2426 25.7659 23.7586 25.9671 25.3607 25.9881C27.4077 26.0145 29.7233 25.717 30.8826 25.0271L30.8908 26.1938ZM30.8762 24.13C30.7229 24.3574 30.2163 24.6675 29.1983 24.9158C28.146 25.1724 26.7863 25.3037 25.3699 25.2854C21.8919 25.2399 19.964 24.3967 19.787 23.9051C19.8135 23.8546 19.8433 23.8058 19.876 23.7591C20.3478 23.0877 21.0466 23.2049 22.4569 23.5104C23.2922 23.6914 24.2391 23.8965 25.358 23.9109C27.388 23.9371 29.7023 23.6421 30.8679 22.957L30.8762 24.13ZM33.6125 19.8389C33.6123 19.9017 33.5986 19.9637 33.5724 20.0208C33.3683 20.4823 32.4525 20.9624 31.1224 21.3048C29.5506 21.71 27.4939 21.9178 25.331 21.8899C24.8779 21.8841 24.4231 21.8679 23.9791 21.8415C23.9324 21.8377 23.8855 21.8433 23.841 21.8579C23.7965 21.8725 23.7554 21.8959 23.7201 21.9265C23.6848 21.9572 23.6559 21.9947 23.6353 22.0367C23.6146 22.0787 23.6025 22.1244 23.5997 22.1711C23.597 22.2178 23.6035 22.2646 23.6191 22.3088C23.6347 22.3529 23.6589 22.3935 23.6903 22.4282C23.7218 22.4629 23.7598 22.4909 23.8023 22.5106C23.8447 22.5304 23.8907 22.5415 23.9374 22.5432C24.3921 22.5701 24.858 22.5867 25.3218 22.5929C27.3443 22.6191 29.2816 22.4422 30.8425 22.0938C30.6557 22.3182 30.1398 22.6118 29.1657 22.8458C28.1179 23.0975 26.7688 23.2261 25.367 23.2079C24.3189 23.1946 23.4086 22.9973 22.6058 22.8232C21.494 22.5824 20.5055 22.3684 19.7662 22.882L19.7595 21.9424C20.5435 22.1351 21.3383 22.2806 22.1396 22.3784C22.1855 22.3842 22.232 22.3809 22.2765 22.3687C22.321 22.3565 22.3627 22.3356 22.3992 22.3073C22.4357 22.279 22.4662 22.2438 22.4891 22.2037C22.512 22.1636 22.5267 22.1194 22.5325 22.0736C22.5383 22.0278 22.535 21.9813 22.5228 21.9367C22.5106 21.8922 22.4897 21.8505 22.4614 21.814C22.4331 21.7776 22.3979 21.747 22.3578 21.7241C22.3177 21.7013 22.2735 21.6865 22.2277 21.6807C21.3066 21.5712 20.395 21.3925 19.5007 21.1462C18.3515 20.8189 17.0079 20.2198 17.0039 19.6088C17.0029 19.4673 17.0819 19.3154 17.2384 19.1609C17.6996 18.7022 18.7243 18.2889 20.1245 17.9962C21.614 17.685 23.3987 17.5334 25.2856 17.5579C30.4347 17.6246 33.6059 18.9314 33.6125 19.8389Z" fill="#242424"/>
<path d="M33 10.5461L31 8.63716L31.8894 7.78829L33 8.85132L36.1106 5.87939L37 6.72827L33 10.5461Z" fill="#19C940"/>
<circle cx="34" cy="8.21289" r="4.8" stroke="#242424" stroke-width="0.4"/>
</svg>
