<svg width="54" height="55" viewBox="0 0 54 55" fill="none" xmlns="http://www.w3.org/2000/svg">
<circle cx="27" cy="27.2129" r="27" fill="white"/>
<path d="M28.5 19.2129C27.7354 19.2129 27.643 20.2653 27.5 20.7129L26.7336 23.0149L26.6653 23.0273L24.2473 21.4174L21.2698 24.1772L17.9567 25.3769L18.3794 27.9441L15.1969 29.4111L15.4467 34.0171L12 36.1429L16.9044 38.2004L22.0779 37.5477L26.2488 39.5058L30.9729 38.8469L32.6326 37.3364L37.6986 39.1763L42 37.3923L39.8617 33.9052L37.9286 32.9231L39.2401 31.7234L36.7289 26.5952L32.8439 26.3155L34.3544 21.7903C34.3544 21.7903 34.2521 21.8912 33.5 21.5059L32.3404 26.0072C32.2721 26.1004 27.8898 22.2999 27.8712 22.2129L28.5 19.5059V19.2129ZM24.3592 22.8346L26.4166 24.2083L29.767 23.6613L30.6621 26.6263L28.4492 28.0622L25.764 27.0304L28.2876 30.0575L32.0545 27.3785L36.0078 27.6644L36.8408 29.3551L33.1796 30.2627L37.3816 30.4554L37.8726 31.4623L35.9892 33.1966L39.0785 34.763L40.359 36.8578L37.6737 37.9704L32.3839 36.0559L30.4756 37.7902L26.4228 38.3496L22.2644 36.3916L17.061 37.0567L14.4404 35.9565L16.6004 34.6262L16.3555 30.1073L18.7399 29.007L20.8285 31.4623L23.0476 29.5292L20.6234 29.697L19.6102 28.5408L19.2124 26.1104L20.6358 25.5945L23.4703 25.7002L22.2271 24.8113L24.3592 22.8346ZM32.9496 32.9044L28.8346 34.16L26.5658 33.265L29.6987 35.9378L32.9496 32.9044ZM18.6343 33.9984L21.1331 35.5338L24.6451 35.3597L18.6343 33.9984Z" fill="#242424"/>
<path d="M33 10.5461L31 8.63716L31.8894 7.78829L33 8.85132L36.1106 5.87939L37 6.72827L33 10.5461Z" fill="#19C940"/>
<circle cx="34" cy="8.21289" r="4.8" stroke="#242424" stroke-width="0.4"/>
</svg>
